
<svg xmlns:rdf="http://www.w3.org/1999/02/22-rdf-syntax-ns#" xmlns="http://www.w3.org/2000/svg" height="50" width="74" version="1.1" xmlns:cc="http://creativecommons.org/ns#" xmlns:dc="http://purl.org/dc/elements/1.1/" viewBox="0 0 74.000003 50.000002">
	<g transform="translate(568.43 -521.65)">
		<path d="m-555.02 521.73c-3.6539 2.122-1.7349 17.369 1.1616 20.628-2.7876 3.0544-4.274 6.6029-4.2848 10.229 0.005 0.13275 0.0115 0.26547 0.0202 0.39814l-10.078-0.30407-0.22457 5.0894 11.477 0.34605c0.17715 0.42184 0.37507 0.83926 0.59342 1.2515l-11.129 4.0345 2.1036 5.7742 13.116-4.7546c5.1571 4.5614 13.006 7.2211 21.309 7.2212 8.3277-0.008 16.191-2.6907 21.337-7.2794l12.146 4.4029 2.1042-5.7737-10.178-3.6896c0.2895-0.53501 0.54445-1.0789 0.76412-1.63l10.355-0.31247-0.22459-5.0894-9.1175 0.27493c-0.0116-3.6192-1.4936-7.1614-4.2724-10.212 4.049-6.8693 3.3505-16.747 1.1515-20.605-3.661-0.85448-13.849 5.0798-18.057 12.289-1.9708-0.31891-3.9862-0.48268-6.0089-0.48828-2.0215 0.008-4.0354 0.17407-6.0044 0.495-4.3079-3.4633-13.249-13.411-18.062-12.296zm10.72 24.714c2.2678 0.00009 4.1062 1.8336 4.1062 4.0955-0.00009 2.2618-1.8385 4.0954-4.1062 4.0955-2.268 0.00022-4.1067-1.8334-4.1068-4.0955 0.00009-2.2621 1.8388-4.0957 4.1068-4.0955zm26.075 0c2.268-0.00023 4.1067 1.8334 4.1068 4.0955-0.00009 2.2621-1.8388 4.0957-4.1068 4.0955-2.2678-0.0001-4.1062-1.8337-4.1062-4.0955 0.0001-2.2619 1.8385-4.0954 4.1062-4.0955z" fill="#e54545"/>
	</g>
</svg>
